<mxfile host="app.diagrams.net" agent="Mozilla/5.0 (Windows NT 10.0; Win64; x64) AppleWebKit/537.36 (KHTML, like Gecko) Chrome/137.0.0.0 Safari/537.36" version="27.0.3">
  <diagram name="Halaman-1" id="B_A3s2_IFmIIh6A6cxAt">
    <mxGraphModel dx="793" dy="465" grid="1" gridSize="10" guides="1" tooltips="1" connect="1" arrows="1" fold="1" page="1" pageScale="1" pageWidth="827" pageHeight="1169" math="0" shadow="0">
      <root>
        <mxCell id="0" />
        <mxCell id="1" parent="0" />
        <mxCell id="g_VqE2WKqQlK8JRJrOXR-1" value="SISTEM INFORMASI PERPUSTAKAAN" style="ellipse;whiteSpace=wrap;html=1;aspect=fixed;" vertex="1" parent="1">
          <mxGeometry x="334" y="50" width="160" height="160" as="geometry" />
        </mxCell>
        <mxCell id="g_VqE2WKqQlK8JRJrOXR-2" value="PEMINJAM" style="rounded=0;whiteSpace=wrap;html=1;" vertex="1" parent="1">
          <mxGeometry x="30" y="90" width="170" height="80" as="geometry" />
        </mxCell>
        <mxCell id="g_VqE2WKqQlK8JRJrOXR-4" value="PETUGAS" style="rounded=0;whiteSpace=wrap;html=1;" vertex="1" parent="1">
          <mxGeometry x="630" y="90" width="170" height="80" as="geometry" />
        </mxCell>
        <mxCell id="g_VqE2WKqQlK8JRJrOXR-7" value="" style="endArrow=classic;html=1;rounded=0;exitX=1;exitY=0.25;exitDx=0;exitDy=0;" edge="1" parent="1" source="g_VqE2WKqQlK8JRJrOXR-2">
          <mxGeometry width="50" height="50" relative="1" as="geometry">
            <mxPoint x="380" y="310" as="sourcePoint" />
            <mxPoint x="330" y="110" as="targetPoint" />
          </mxGeometry>
        </mxCell>
        <mxCell id="g_VqE2WKqQlK8JRJrOXR-8" value="" style="endArrow=classic;html=1;rounded=0;entryX=0;entryY=0.25;entryDx=0;entryDy=0;" edge="1" parent="1" target="g_VqE2WKqQlK8JRJrOXR-4">
          <mxGeometry width="50" height="50" relative="1" as="geometry">
            <mxPoint x="500" y="110" as="sourcePoint" />
            <mxPoint x="340" y="120" as="targetPoint" />
          </mxGeometry>
        </mxCell>
        <mxCell id="g_VqE2WKqQlK8JRJrOXR-10" value="&lt;font style=&quot;font-size: 11px;&quot;&gt;Permintaan Pinjaman&lt;/font&gt;" style="text;html=1;align=center;verticalAlign=middle;whiteSpace=wrap;rounded=0;" vertex="1" parent="1">
          <mxGeometry x="210" y="80" width="110" height="30" as="geometry" />
        </mxCell>
        <mxCell id="g_VqE2WKqQlK8JRJrOXR-11" value="&lt;font style=&quot;font-size: 11px;&quot;&gt;Permintaan Diterima&lt;/font&gt;" style="text;html=1;align=center;verticalAlign=middle;whiteSpace=wrap;rounded=0;" vertex="1" parent="1">
          <mxGeometry x="499" y="80" width="121" height="30" as="geometry" />
        </mxCell>
        <mxCell id="g_VqE2WKqQlK8JRJrOXR-12" value="" style="endArrow=classic;html=1;rounded=0;entryX=1;entryY=0.75;entryDx=0;entryDy=0;" edge="1" parent="1" target="g_VqE2WKqQlK8JRJrOXR-2">
          <mxGeometry width="50" height="50" relative="1" as="geometry">
            <mxPoint x="330" y="150" as="sourcePoint" />
            <mxPoint x="340" y="120" as="targetPoint" />
          </mxGeometry>
        </mxCell>
        <mxCell id="g_VqE2WKqQlK8JRJrOXR-13" value="" style="endArrow=classic;html=1;rounded=0;exitX=0;exitY=0.75;exitDx=0;exitDy=0;" edge="1" parent="1" source="g_VqE2WKqQlK8JRJrOXR-4">
          <mxGeometry width="50" height="50" relative="1" as="geometry">
            <mxPoint x="340" y="160" as="sourcePoint" />
            <mxPoint x="500" y="150" as="targetPoint" />
          </mxGeometry>
        </mxCell>
        <mxCell id="g_VqE2WKqQlK8JRJrOXR-14" value="&lt;font style=&quot;font-size: 11px;&quot;&gt;Laporan Peminjaman&lt;/font&gt;" style="text;html=1;align=center;verticalAlign=middle;whiteSpace=wrap;rounded=0;" vertex="1" parent="1">
          <mxGeometry x="502.88" y="160" width="113.25" height="30" as="geometry" />
        </mxCell>
        <mxCell id="g_VqE2WKqQlK8JRJrOXR-15" value="&lt;font style=&quot;font-size: 11px;&quot;&gt;Data Status Pinjaman&lt;/font&gt;" style="text;html=1;align=center;verticalAlign=middle;whiteSpace=wrap;rounded=0;" vertex="1" parent="1">
          <mxGeometry x="210" y="160" width="115" height="30" as="geometry" />
        </mxCell>
        <mxCell id="g_VqE2WKqQlK8JRJrOXR-16" value="" style="endArrow=none;html=1;rounded=0;" edge="1" parent="1">
          <mxGeometry width="50" height="50" relative="1" as="geometry">
            <mxPoint x="314" y="360" as="sourcePoint" />
            <mxPoint x="514" y="360" as="targetPoint" />
          </mxGeometry>
        </mxCell>
        <mxCell id="g_VqE2WKqQlK8JRJrOXR-17" value="" style="endArrow=none;html=1;rounded=0;" edge="1" parent="1">
          <mxGeometry width="50" height="50" relative="1" as="geometry">
            <mxPoint x="314" y="410" as="sourcePoint" />
            <mxPoint x="514" y="410" as="targetPoint" />
          </mxGeometry>
        </mxCell>
        <mxCell id="g_VqE2WKqQlK8JRJrOXR-18" value="&lt;font&gt;DATA PINJAMAN BUKU&lt;/font&gt;" style="text;html=1;align=center;verticalAlign=middle;whiteSpace=wrap;rounded=0;" vertex="1" parent="1">
          <mxGeometry x="343" y="370" width="141.5" height="30" as="geometry" />
        </mxCell>
        <mxCell id="g_VqE2WKqQlK8JRJrOXR-19" value="" style="endArrow=classic;html=1;rounded=0;" edge="1" parent="1">
          <mxGeometry width="50" height="50" relative="1" as="geometry">
            <mxPoint x="436.5" y="220" as="sourcePoint" />
            <mxPoint x="436.5" y="350" as="targetPoint" />
          </mxGeometry>
        </mxCell>
        <mxCell id="g_VqE2WKqQlK8JRJrOXR-20" value="" style="endArrow=classic;html=1;rounded=0;" edge="1" parent="1">
          <mxGeometry width="50" height="50" relative="1" as="geometry">
            <mxPoint x="382" y="350" as="sourcePoint" />
            <mxPoint x="382" y="220" as="targetPoint" />
          </mxGeometry>
        </mxCell>
        <mxCell id="g_VqE2WKqQlK8JRJrOXR-21" value="&lt;font&gt;Detail Peminjaman&amp;nbsp;&lt;/font&gt;" style="text;html=1;align=center;verticalAlign=middle;whiteSpace=wrap;rounded=0;rotation=-90;" vertex="1" parent="1">
          <mxGeometry x="300" y="270" width="110" height="30" as="geometry" />
        </mxCell>
        <mxCell id="g_VqE2WKqQlK8JRJrOXR-22" value="&lt;font&gt;Data Peminjaman&lt;/font&gt;" style="text;html=1;align=center;verticalAlign=middle;whiteSpace=wrap;rounded=0;rotation=90;" vertex="1" parent="1">
          <mxGeometry x="410" y="270" width="105.5" height="30" as="geometry" />
        </mxCell>
      </root>
    </mxGraphModel>
  </diagram>
</mxfile>
